<svg id="SvgjsSvg1130" width="593" height="708" xmlns="http://www.w3.org/2000/svg" version="1.1" xmlns:xlink="http://www.w3.org/1999/xlink" xmlns:svgjs="http://svgjs.com/svgjs"><defs id="SvgjsDefs1131"><marker id="SvgjsMarker1146" markerWidth="16" markerHeight="12" refX="16" refY="6" viewBox="0 0 16 12" orient="auto" markerUnits="userSpaceOnUse" stroke-dasharray="0,0"><path id="SvgjsPath1147" d="M0,2 L14,6 L0,11 L0,2" fill="#323232" stroke="#323232" stroke-width="2"></path></marker><marker id="SvgjsMarker1164" markerWidth="16" markerHeight="12" refX="16" refY="6" viewBox="0 0 16 12" orient="auto" markerUnits="userSpaceOnUse" stroke-dasharray="0,0"><path id="SvgjsPath1165" d="M0,2 L14,6 L0,11 L0,2" fill="#323232" stroke="#323232" stroke-width="2"></path></marker><marker id="SvgjsMarker1186" markerWidth="16" markerHeight="12" refX="16" refY="6" viewBox="0 0 16 12" orient="auto" markerUnits="userSpaceOnUse" stroke-dasharray="0,0"><path id="SvgjsPath1187" d="M0,2 L14,6 L0,11 L0,2" fill="#323232" stroke="#323232" stroke-width="2"></path></marker><marker id="SvgjsMarker1202" markerWidth="16" markerHeight="12" refX="16" refY="6" viewBox="0 0 16 12" orient="auto" markerUnits="userSpaceOnUse" stroke-dasharray="0,0"><path id="SvgjsPath1203" d="M0,2 L14,6 L0,11 L0,2" fill="#323232" stroke="#323232" stroke-width="2"></path></marker><marker id="SvgjsMarker1214" markerWidth="16" markerHeight="12" refX="16" refY="6" viewBox="0 0 16 12" orient="auto" markerUnits="userSpaceOnUse" stroke-dasharray="0,0"><path id="SvgjsPath1215" d="M0,2 L14,6 L0,11 L0,2" fill="#323232" stroke="#323232" stroke-width="2"></path></marker><marker id="SvgjsMarker1226" markerWidth="16" markerHeight="12" refX="16" refY="6" viewBox="0 0 16 12" orient="auto" markerUnits="userSpaceOnUse" stroke-dasharray="0,0"><path id="SvgjsPath1227" d="M0,2 L14,6 L0,11 L0,2" fill="#323232" stroke="#323232" stroke-width="2"></path></marker><marker id="SvgjsMarker1230" markerWidth="16" markerHeight="12" refX="16" refY="6" viewBox="0 0 16 12" orient="auto" markerUnits="userSpaceOnUse" stroke-dasharray="0,0"><path id="SvgjsPath1231" d="M0,2 L14,6 L0,11 L0,2" fill="#323232" stroke="#323232" stroke-width="2"></path></marker><marker id="SvgjsMarker1234" markerWidth="16" markerHeight="12" refX="16" refY="6" viewBox="0 0 16 12" orient="auto" markerUnits="userSpaceOnUse" stroke-dasharray="0,0"><path id="SvgjsPath1235" d="M0,2 L14,6 L0,11 L0,2" fill="#323232" stroke="#323232" stroke-width="2"></path></marker><marker id="SvgjsMarker1238" markerWidth="16" markerHeight="12" refX="16" refY="6" viewBox="0 0 16 12" orient="auto" markerUnits="userSpaceOnUse" stroke-dasharray="0,0"><path id="SvgjsPath1239" d="M0,2 L14,6 L0,11 L0,2" fill="#323232" stroke="#323232" stroke-width="2"></path></marker><marker id="SvgjsMarker1242" markerWidth="16" markerHeight="12" refX="16" refY="6" viewBox="0 0 16 12" orient="auto" markerUnits="userSpaceOnUse" stroke-dasharray="0,0"><path id="SvgjsPath1243" d="M0,2 L14,6 L0,11 L0,2" fill="#323232" stroke="#323232" stroke-width="2"></path></marker><marker id="SvgjsMarker1246" markerWidth="16" markerHeight="12" refX="16" refY="6" viewBox="0 0 16 12" orient="auto" markerUnits="userSpaceOnUse" stroke-dasharray="0,0"><path id="SvgjsPath1247" d="M0,2 L14,6 L0,11 L0,2" fill="#323232" stroke="#323232" stroke-width="2"></path></marker></defs><g id="SvgjsG1132" transform="translate(419,26.5)"><path id="SvgjsPath1133" d="M 16 0L 149 0L 133 48L 0 48L 16 0Z" stroke="rgba(50,50,50,1)" stroke-width="2" fill-opacity="1" fill="#ffffff"></path><g id="SvgjsG1134"><text id="SvgjsText1135" font-family="微软雅黑" text-anchor="middle" font-size="13px" width="105px" fill="#323232" font-weight="400" align="middle" anchor="middle" family="微软雅黑" size="13px" weight="400" font-style="" opacity="1" y="14.05" transform="rotate(0)"><tspan id="SvgjsTspan1136" dy="16" x="74.85"><tspan id="SvgjsTspan1137" style="text-decoration:;">*genomic.fna.gz</tspan></tspan></text></g></g><g id="SvgjsG1138" transform="translate(25,25)"><path id="SvgjsPath1139" d="M 17 0L 144 0L 127 51L 0 51L 17 0Z" stroke="rgba(50,50,50,1)" stroke-width="2" fill-opacity="1" fill="#ffffff"></path><g id="SvgjsG1140"><text id="SvgjsText1141" font-family="微软雅黑" text-anchor="middle" font-size="13px" width="101px" fill="#323232" font-weight="400" align="middle" anchor="middle" family="微软雅黑" size="13px" weight="400" font-style="" opacity="1" y="15.55" transform="rotate(0)"><tspan id="SvgjsTspan1142" dy="16" x="72.1"><tspan id="SvgjsTspan1143" style="text-decoration:;">prokaryotes.txt</tspan></tspan></text></g></g><g id="SvgjsG1144"><path id="SvgjsPath1145" d="M160.5 50.5L192.25 50.5L192.25 50.5L224 50.5" stroke="#323232" stroke-width="2" fill="none" marker-end="url(#SvgjsMarker1146)"></path></g><g id="SvgjsG1148" transform="translate(224,25)"><path id="SvgjsPath1149" d="M 0 0L 143 0L 143 51L 0 51Z" stroke="rgba(50,50,50,1)" stroke-width="2" fill-opacity="1" fill="#ffffff"></path><g id="SvgjsG1150"><text id="SvgjsText1151" font-family="微软雅黑" text-anchor="middle" font-size="13px" width="123px" fill="#323232" font-weight="400" align="middle" anchor="middle" family="微软雅黑" size="13px" weight="400" font-style="" opacity="1" y="7.55" transform="rotate(0)"><tspan id="SvgjsTspan1152" dy="16" x="71.5"><tspan id="SvgjsTspan1153" style="text-decoration:;">基因组数据下载</tspan></tspan><tspan id="SvgjsTspan1154" dy="16" x="71.5"><tspan id="SvgjsTspan1155" style="text-decoration:;">过滤低质量基因组</tspan></tspan></text></g></g><g id="SvgjsG1156" transform="translate(25.5,134)"><path id="SvgjsPath1157" d="M 0 0L 143 0L 143 51L 0 51Z" stroke="rgba(50,50,50,1)" stroke-width="2" fill-opacity="1" fill="#ffffff"></path><g id="SvgjsG1158"><text id="SvgjsText1159" font-family="微软雅黑" text-anchor="middle" font-size="13px" width="123px" fill="#323232" font-weight="400" align="middle" anchor="middle" family="微软雅黑" size="13px" weight="400" font-style="" opacity="1" y="15.55" transform="rotate(0)"><tspan id="SvgjsTspan1160" dy="16" x="71.5"><tspan id="SvgjsTspan1161" style="text-decoration:;">prokka基因预测</tspan></tspan></text></g></g><g id="SvgjsG1162"><path id="SvgjsPath1163" d="M493.5 74.5L493.5 104.25L97 104.25L97 134" stroke="#323232" stroke-width="2" fill="none" marker-end="url(#SvgjsMarker1164)"></path></g><g id="SvgjsG1166" transform="translate(221,135.5)"><path id="SvgjsPath1167" d="M 16 0L 149 0L 133 48L 0 48L 16 0Z" stroke="rgba(50,50,50,1)" stroke-width="2" fill-opacity="1" fill="#ffffff"></path><g id="SvgjsG1168"><text id="SvgjsText1169" font-family="微软雅黑" text-anchor="middle" font-size="13px" width="105px" fill="#323232" font-weight="400" align="middle" anchor="middle" family="微软雅黑" size="13px" weight="400" font-style="" opacity="1" y="14.05" transform="rotate(0)"><tspan id="SvgjsTspan1170" dy="16" x="74.85"><tspan id="SvgjsTspan1171" style="text-decoration:;">*gff</tspan></tspan></text></g></g><g id="SvgjsG1172" transform="translate(419,134)"><path id="SvgjsPath1173" d="M 0 0L 143 0L 143 51L 0 51Z" stroke="rgba(50,50,50,1)" stroke-width="2" fill-opacity="1" fill="#ffffff"></path><g id="SvgjsG1174"><text id="SvgjsText1175" font-family="微软雅黑" text-anchor="middle" font-size="13px" width="123px" fill="#323232" font-weight="400" align="middle" anchor="middle" family="微软雅黑" size="13px" weight="400" font-style="" opacity="1" y="15.55" transform="rotate(0)"><tspan id="SvgjsTspan1176" dy="16" x="71.5"><tspan id="SvgjsTspan1177" style="text-decoration:;">roray泛基因组分析</tspan></tspan></text></g></g><g id="SvgjsG1178" transform="translate(221,233)"><path id="SvgjsPath1179" d="M 16 0L 149 0L 133 48L 0 48L 16 0Z" stroke="rgba(50,50,50,1)" stroke-width="2" fill-opacity="1" fill="#ffffff"></path><g id="SvgjsG1180"><text id="SvgjsText1181" font-family="微软雅黑" text-anchor="middle" font-size="13px" width="105px" fill="#323232" font-weight="400" align="middle" anchor="middle" family="微软雅黑" size="13px" weight="400" font-style="" opacity="1" y="14.05" transform="rotate(0)"><tspan id="SvgjsTspan1182" dy="16" x="74.85"><tspan id="SvgjsTspan1183" style="text-decoration:;">core.fa</tspan></tspan></text></g></g><g id="SvgjsG1184"><path id="SvgjsPath1185" d="M490.5 185L490.5 209L295.5 209L295.5 233" stroke="#323232" stroke-width="2" fill="none" marker-end="url(#SvgjsMarker1186)"></path></g><g id="SvgjsG1188" transform="translate(224,310.5)"><path id="SvgjsPath1189" d="M 0 0L 143 0L 143 51L 0 51Z" stroke="rgba(50,50,50,1)" stroke-width="2" fill-opacity="1" fill="#ffffff"></path><g id="SvgjsG1190"><text id="SvgjsText1191" font-family="微软雅黑" text-anchor="middle" font-size="13px" width="123px" fill="#323232" font-weight="400" align="middle" anchor="middle" family="微软雅黑" size="13px" weight="400" font-style="" opacity="1" y="15.55" transform="rotate(0)"><tspan id="SvgjsTspan1192" dy="16" x="71.5"><tspan id="SvgjsTspan1193" style="text-decoration:;">比对到NT库</tspan></tspan></text></g></g><g id="SvgjsG1194" transform="translate(224,391)"><path id="SvgjsPath1195" d="M 0 0L 143 0L 143 51L 0 51Z" stroke="rgba(50,50,50,1)" stroke-width="2" fill-opacity="1" fill="#ffffff"></path><g id="SvgjsG1196"><text id="SvgjsText1197" font-family="微软雅黑" text-anchor="middle" font-size="13px" width="123px" fill="#323232" font-weight="400" align="middle" anchor="middle" family="微软雅黑" size="13px" weight="400" font-style="" opacity="1" y="15.55" transform="rotate(0)"><tspan id="SvgjsTspan1198" dy="16" x="71.5"><tspan id="SvgjsTspan1199" style="text-decoration:;">identity过滤</tspan></tspan></text></g></g><g id="SvgjsG1200"><path id="SvgjsPath1201" d="M295.5 361.5L295.5 376.25L295.5 376.25L295.5 391" stroke="#323232" stroke-width="2" fill="none" marker-end="url(#SvgjsMarker1202)"></path></g><g id="SvgjsG1204" transform="translate(224,471)"><path id="SvgjsPath1205" d="M 0 0L 143 0L 143 51L 0 51Z" stroke="rgba(50,50,50,1)" stroke-width="2" fill-opacity="1" fill="#ffffff"></path><g id="SvgjsG1206"><text id="SvgjsText1207" font-family="微软雅黑" text-anchor="middle" font-size="13px" width="123px" fill="#323232" font-weight="400" align="middle" anchor="middle" family="微软雅黑" size="13px" weight="400" font-style="" opacity="1" y="7.55" transform="rotate(0)"><tspan id="SvgjsTspan1208" dy="16" x="71.5"><tspan id="SvgjsTspan1209" style="text-decoration:;">提取前10%的比对结</tspan></tspan><tspan id="SvgjsTspan1210" dy="16" x="71.5"><tspan id="SvgjsTspan1211" style="text-decoration:;">果</tspan></tspan></text></g></g><g id="SvgjsG1212"><path id="SvgjsPath1213" d="M295.5 442L295.5 456.5L295.5 456.5L295.5 471" stroke="#323232" stroke-width="2" fill="none" marker-end="url(#SvgjsMarker1214)"></path></g><g id="SvgjsG1216" transform="translate(224,552)"><path id="SvgjsPath1217" d="M 0 0L 143 0L 143 51L 0 51Z" stroke="rgba(50,50,50,1)" stroke-width="2" fill-opacity="1" fill="#ffffff"></path><g id="SvgjsG1218"><text id="SvgjsText1219" font-family="微软雅黑" text-anchor="middle" font-size="13px" width="123px" fill="#323232" font-weight="400" align="middle" anchor="middle" family="微软雅黑" size="13px" weight="400" font-style="" opacity="1" y="7.55" transform="rotate(0)"><tspan id="SvgjsTspan1220" dy="16" x="71.5"><tspan id="SvgjsTspan1221" style="text-decoration:;">前10%结果中，都只</tspan></tspan><tspan id="SvgjsTspan1222" dy="16" x="71.5"><tspan id="SvgjsTspan1223" style="text-decoration:;">比对到该物种</tspan></tspan></text></g></g><g id="SvgjsG1224"><path id="SvgjsPath1225" d="M295.5 522L295.5 537L295.5 537L295.5 552" stroke="#323232" stroke-width="2" fill="none" marker-end="url(#SvgjsMarker1226)"></path></g><g id="SvgjsG1228"><path id="SvgjsPath1229" d="M295.5 603L295.5 618.5L295.5 618.5L295.5 634" stroke="#323232" stroke-width="2" fill="none" marker-end="url(#SvgjsMarker1230)"></path></g><g id="SvgjsG1232"><path id="SvgjsPath1233" d="M367 50.5L397 50.5L397 50.5L427 50.5" stroke="#323232" stroke-width="2" fill="none" marker-end="url(#SvgjsMarker1234)"></path></g><g id="SvgjsG1236"><path id="SvgjsPath1237" d="M168.5 159.5L198.75 159.5L198.75 159.5L229 159.5" stroke="#323232" stroke-width="2" fill="none" marker-end="url(#SvgjsMarker1238)"></path></g><g id="SvgjsG1240"><path id="SvgjsPath1241" d="M362 159.5L390.5 159.5L390.5 159.5L419 159.5" stroke="#323232" stroke-width="2" fill="none" marker-end="url(#SvgjsMarker1242)"></path></g><g id="SvgjsG1244"><path id="SvgjsPath1245" d="M295.5 281L295.5 295.75L295.5 295.75L295.5 310.5" stroke="#323232" stroke-width="2" fill="none" marker-end="url(#SvgjsMarker1246)"></path></g><g id="SvgjsG1248" transform="translate(224,634)"><path id="SvgjsPath1249" d="M 16.333333333333332 0L 126.66666666666667 0C 148.44444444444446 0 148.44444444444446 49 126.66666666666667 49L 16.333333333333332 49C -5.444444444444444 49 -5.444444444444444 0 16.333333333333332 0Z" stroke="rgba(50,50,50,1)" stroke-width="2" fill-opacity="1" fill="#ffffff"></path><g id="SvgjsG1250"><text id="SvgjsText1251" font-family="微软雅黑" text-anchor="middle" font-size="13px" width="123px" fill="#323232" font-weight="400" align="middle" anchor="middle" family="微软雅黑" size="13px" weight="400" font-style="" opacity="1" y="14.55" transform="rotate(0)"><tspan id="SvgjsTspan1252" dy="16" x="71.5"><tspan id="SvgjsTspan1253" style="text-decoration:;">提取物种特异基因</tspan></tspan></text></g></g></svg>